<?xml version="1.0" standalone="no"?>
<!DOCTYPE svg PUBLIC "-//W3C//DTD SVG 20010904//EN"
 "http://www.w3.org/TR/2001/REC-SVG-20010904/DTD/svg10.dtd">
<svg version="1.0" xmlns="http://www.w3.org/2000/svg"
 width="512.000000pt" height="512.000000pt" viewBox="0 0 512.000000 512.000000"
 preserveAspectRatio="xMidYMid meet">

<g transform="translate(0.000000,512.000000) scale(0.100000,-0.100000)"
fill="#000000" stroke="none">
<path d="M1855 4186 c-143 -34 -233 -84 -328 -185 -101 -108 -166 -263 -167
-400 0 -128 89 -222 211 -221 104 1 198 103 199 215 1 93 105 195 197 195 87
0 180 -67 202 -145 7 -25 11 -156 11 -357 l0 -318 -217 0 c-120 0 -235 -5
-255 -10 -134 -38 -186 -215 -96 -325 57 -69 83 -75 341 -75 l227 0 0 -449 c0
-494 4 -537 60 -677 78 -196 252 -371 448 -450 362 -146 773 -21 986 299 52
79 96 171 110 230 4 16 24 51 46 78 163 206 90 509 -150 623 -60 29 -73 31
-170 31 -97 0 -110 -2 -170 -31 -82 -40 -136 -87 -177 -155 -116 -194 -64
-426 127 -562 l25 -18 -45 -41 c-202 -183 -521 -117 -643 132 l-32 65 -3 462
-3 462 233 3 c266 3 288 9 343 87 27 38 30 51 30 115 0 93 -28 141 -106 180
-52 26 -55 26 -275 26 l-222 0 -4 363 c-5 402 -5 406 -76 541 -98 187 -295
311 -511 322 -53 2 -109 -2 -146 -10z"/>
</g>
</svg>
